<svg width="48" height="54" fill="none" xmlns="http://www.w3.org/2000/svg">
  <path
    d="M24.1 16.2a5.7 5.7 0 0 0-5.6 5.8c0 .6.1 1.1.2 1.6.1.4.3.9.5 1.2.8 1.7 2 3.3 4.3 6 .2.2.7.6 1.3-.1 4.8-5.4 4.8-8.1 4.8-8.1v-.7c.1-3.1-2.4-5.7-5.5-5.7Z"
    fill="#000"/>
  <path
    d="M24 0C10.7 0 0 10.7 0 24c0 11.9 8.7 21.8 20.1 23.7l4 6.3 4-6.4A23.88 23.88 0 0 0 48 24C48 10.7 37.3 0 24 0Zm9 22.4s.1 4.3-8.1 13c-.8.8-1.6 0-1.6 0-3.8-4.4-5.8-6.9-7.1-9.6-.3-.6-.6-1.2-.8-1.9-.2-.8-.4-1.6-.4-2.5 0-5 4.1-9.1 9.1-9.1s9.1 4.1 9.1 9.1c-.1.3-.2.6-.2 1Z"
    fill="#000"/>
</svg>
